<?xml version="1.0" encoding="UTF-8"?>
<svg version="1.1" xmlns="http://www.w3.org/2000/svg" width="3000" height="3000">
<path d="M0 0 C1.22947357 -0.00700928 2.45894714 -0.01401855 3.72567749 -0.02124023 C7.05660975 -0.03569576 10.38653068 -0.03249686 13.71740341 -0.01972389 C17.22933908 -0.00948365 20.74123618 -0.01901975 24.25317383 -0.02526855 C30.14705007 -0.03251331 36.04072478 -0.02304134 41.93457031 -0.00390625 C48.71540767 0.01785656 55.49576367 0.01080291 62.27658939 -0.01121187 C68.13437249 -0.0294571 73.99201204 -0.03188001 79.84981441 -0.0214572 C83.33270576 -0.01527197 86.81537207 -0.01424729 90.29824829 -0.02760315 C94.1859966 -0.04147454 98.07322058 -0.02216403 101.9609375 0 C103.09066986 -0.00809692 104.22040222 -0.01619385 105.3843689 -0.02453613 C120.11562411 0.12987231 129.98398131 4.65511489 140.10546875 14.89257812 C140.63795227 15.42091248 141.17043579 15.94924683 141.71905518 16.49359131 C154.82221001 29.70482344 162.23088043 45.75100171 169.73730469 62.54785156 C176.92562583 78.58828581 184.81035501 94.32854951 192.55233765 110.10687256 C195.05811684 115.21395652 197.5600759 120.3229121 200.0625 125.43164062 C200.56529984 126.45790558 201.06809967 127.48417053 201.58613586 128.54153442 C206.29361633 138.15196498 210.98381589 147.77076048 215.66796875 157.39257812 C216.44148288 158.98128486 217.21500177 160.56998929 217.98852539 162.15869141 C219.14760165 164.53928492 220.30667219 166.91988121 221.46568298 169.30050659 C225.94499018 178.500199 230.43136206 187.696444 234.91796875 196.89257812 C235.53978531 198.16714874 235.53978531 198.16714874 236.17416382 199.46746826 C238.27083613 203.76512444 240.36757409 208.06274859 242.46435547 212.36035156 C246.22047721 220.05906272 249.97595199 227.75808946 253.73147583 235.45709229 C255.81444699 239.72726715 257.89745999 243.9974216 259.98046875 248.26757812 C260.81380228 249.97591136 261.64713562 251.68424469 262.48046875 253.39257812 C263.09921875 254.66101563 263.09921875 254.66101563 263.73046875 255.95507812 C307.4804693 345.64257924 307.4804693 345.64257924 308.73045349 348.20504761 C309.56383689 349.91348306 310.39722108 351.62191812 311.23060608 353.33035278 C313.31318005 357.59962053 315.39574012 361.86889506 317.47827148 366.13818359 C321.23731405 373.8443655 324.99645837 381.55049768 328.75611877 389.25637817 C336.56649958 405.26471135 344.37632862 421.27331057 352.17700195 437.28637695 C353.74255515 440.50009287 355.30884668 443.71344726 356.87573242 446.92651367 C360.56047625 454.48430387 364.23852131 462.04518331 367.8971405 469.61566162 C369.63004526 473.2004354 371.36626597 476.78359843 373.10275269 480.36663818 C373.92726826 482.0703036 374.75016805 483.7747521 375.57131958 485.4800415 C376.71140784 487.84742985 377.85708622 490.21203886 379.00390625 492.57617188 C379.33332718 493.26403275 379.66274811 493.95189362 380.00215149 494.66059875 C381.66024736 498.06494455 383.43065465 501.30170908 385.46899414 504.49462891 C388.00505866 508.47174629 390.10113491 512.57718256 392.140625 516.82617188 C392.52278671 517.61278702 392.90494843 518.39940216 393.2986908 519.20985413 C394.55091447 521.78961575 395.79689147 524.37234287 397.04296875 526.95507812 C397.93116408 528.78734046 398.81984502 530.61936746 399.70898438 532.45117188 C401.5541255 536.25348719 403.39718193 540.05680225 405.23876953 543.86083984 C409.05793834 551.74581983 412.90252545 559.61836976 416.74694824 567.49105835 C418.81957245 571.73624602 420.89009216 575.98246001 422.9609375 580.22851562 C425.9256449 586.30661922 428.89145396 592.38418355 431.85852051 598.46113586 C433.57963607 601.98631841 435.30035954 605.51169228 437.02105713 609.03707886 C437.86360071 610.76302164 438.70633103 612.48887327 439.54925537 614.21463013 C443.8902239 623.1023311 448.21856587 631.99555304 452.5 640.91210938 C453.20336645 642.37483853 453.90673552 643.83756643 454.61010742 645.30029297 C455.90805684 648.0001687 457.200412 650.70262332 458.48950195 653.40673828 C459.05628662 654.58671387 459.62307129 655.76668945 460.20703125 656.98242188 C460.69768066 658.00972412 461.18833008 659.03702637 461.69384766 660.09545898 C462.87839045 662.61066929 462.87839045 662.61066929 464.98046875 664.51757812 C465.39111572 665.75918701 465.39111572 665.75918701 465.81005859 667.02587891 C467.37372023 671.69077016 469.53187981 675.97810252 471.70703125 680.38476562 C472.17354095 681.33715118 472.64005066 682.28953674 473.12069702 683.27078247 C474.61209532 686.31312566 476.1087674 689.35284092 477.60546875 692.39257812 C478.58887413 694.39762343 479.57195017 696.4028303 480.5546875 698.40820312 C482.46940899 702.31329793 484.3906776 706.21506248 486.31738281 710.11425781 C487.97114521 713.46142809 489.6099871 716.81484303 491.22949219 720.17871094 C491.90425885 721.56512267 492.57906083 722.95151722 493.25390625 724.33789062 C493.81255371 725.49820801 494.37120117 726.65852539 494.94677734 727.85400391 C496.50412125 730.85173003 498.37170251 733.51716956 500.3503418 736.25317383 C504.12229641 741.54635396 506.97953995 747.07926318 509.7890625 752.92773438 C510.31268875 754.00010849 510.836315 755.0724826 511.37580872 756.17735291 C513.06466151 759.64103821 514.74141235 763.11042669 516.41796875 766.58007812 C517.5923623 768.99692879 518.76934657 771.41251479 519.94628906 773.828125 C522.80349629 779.69630199 525.65017574 785.56953061 528.49310303 791.44464111 C530.48148323 795.55268732 532.47491804 799.65826984 534.46875 803.76367188 C536.33848505 807.61530395 538.2068574 811.46758284 540.07080078 815.32202148 C545.61164044 826.77846681 551.20014314 838.21143617 556.79296875 849.64257812 C563.74161477 863.84550194 570.68327412 878.05174165 577.60546875 892.26757812 C579.16144975 895.4628948 580.7174342 898.65820981 582.2734375 901.85351562 C582.65838379 902.6440332 583.04333008 903.43455078 583.43994141 904.24902344 C587.92842903 913.46558434 592.42302024 922.67916694 596.91796875 931.89257812 C597.33242249 932.7421106 597.74687622 933.59164307 598.17388916 934.46691895 C600.27065223 938.76475862 602.36748483 943.06256437 604.46435547 947.36035156 C606.5546357 951.6446812 608.64473903 955.9290971 610.73471069 960.21357727 C611.56852219 961.92289185 612.4023642 963.63219155 613.23623657 965.34147644 C615.30437483 969.58089501 617.37198148 973.82057122 619.43847656 978.06079102 C623.35548893 986.09661006 627.2781829 994.12953075 631.21798706 1002.15420532 C633.08663454 1005.96106676 634.95248641 1009.7692952 636.81811523 1013.57763672 C637.71157026 1015.39945114 638.60640719 1017.22058854 639.50268555 1019.04101562 C640.74223162 1021.55886547 641.97707543 1024.07897041 643.2109375 1026.59960938 C643.76408882 1027.71847282 643.76408882 1027.71847282 644.32841492 1028.85993958 C645.88746571 1032.05531149 647.20387696 1035.0500837 647.98046875 1038.51757812 C648.64046875 1038.51757812 649.30046875 1038.51757812 649.98046875 1038.51757812 C650.24134277 1039.25443848 650.5022168 1039.99129883 650.77099609 1040.75048828 C654.06002505 1049.69000587 658.09852719 1058.08550408 662.4185791 1066.56271362 C664.46042151 1070.57085048 666.48083068 1074.58978943 668.50390625 1078.60742188 C668.9011792 1079.39514481 669.29845215 1080.18286774 669.70776367 1080.99446106 C673.03747481 1087.6054081 676.26128124 1094.26141537 679.4074707 1100.96166992 C682.22355147 1106.9264226 685.13019028 1112.83887252 688.084198 1118.73643494 C690.14237843 1122.84795686 692.18866314 1126.96536024 694.23498535 1131.08279419 C695.2707176 1133.15845827 696.31211586 1135.23130505 697.35925293 1137.30123901 C698.83730579 1140.2244475 700.29543487 1143.15684677 701.75 1146.09179688 C702.20661514 1146.98243835 702.66323029 1147.87307983 703.13368225 1148.79071045 C703.74197121 1150.03162445 703.74197121 1150.03162445 704.36254883 1151.29760742 C704.72463943 1152.01877243 705.08673004 1152.73993744 705.45979309 1153.48295593 C705.98046875 1155.51757812 705.98046875 1155.51757812 705.08158875 1157.78132629 C704.71821915 1158.3542894 704.35484955 1158.9272525 703.98046875 1159.51757812 C703.04533447 1159.26065186 703.04533447 1159.26065186 702.09130859 1158.99853516 C699.18166142 1158.20450762 696.26864813 1157.42354267 693.35546875 1156.64257812 C692.37578125 1156.37316406 691.39609375 1156.10375 690.38671875 1155.82617188 C676.59447397 1152.1542106 663.22403144 1151.16754553 649.02368164 1151.2019043 C646.31420171 1151.20505345 643.60582954 1151.18155262 640.89648438 1151.15625 C625.05943221 1151.09726757 609.68577881 1152.81486756 594.54296875 1157.64257812 C593.5876123 1157.94188232 592.63225586 1158.24118652 591.64794922 1158.54956055 C565.61075924 1166.98247547 542.8190665 1180.74696361 522.98046875 1199.51757812 C522.15933594 1200.28585937 521.33820313 1201.05414062 520.4921875 1201.84570312 C501.41644901 1220.23910572 489.28370424 1243.99086637 479.98046875 1268.51757812 C478.00046875 1268.51757812 476.02046875 1268.51757812 473.98046875 1268.51757812 C467.69130504 1256.88117615 461.78634544 1245.09181585 456.06542969 1233.16650391 C450.30022276 1221.15251543 444.46199213 1209.17479902 438.60546875 1197.20507812 C438.10902863 1196.19014282 437.6125885 1195.17520752 437.10110474 1194.1295166 C430.29725815 1180.2250118 423.44848026 1166.34450121 416.46728516 1152.52807617 C412.32291357 1144.30105768 408.33409614 1136.00720781 404.37142944 1127.69146729 C399.47051917 1117.4203345 394.46052547 1107.20377857 389.43984985 1096.99078369 C386.69144886 1091.39953966 383.94721075 1085.80625348 381.203125 1080.21289062 C380.66179428 1079.1095639 380.12046356 1078.00623718 379.56272888 1076.86947632 C375.11711311 1067.80464464 370.69678353 1058.72777733 366.29296875 1049.64257812 C359.63088298 1035.90096449 352.93697376 1022.17506877 346.23046875 1008.45507812 C345.51499374 1006.99077362 345.51499374 1006.99077362 344.7850647 1005.49688721 C343.41842789 1002.7001441 342.05112769 999.9037264 340.68359375 997.10742188 C340.28220688 996.28595169 339.88082001 995.46448151 339.4672699 994.61811829 C339.08136185 993.82946884 338.6954538 993.0408194 338.29785156 992.22827148 C337.92390259 991.46328339 337.54995361 990.69829529 337.16467285 989.91012573 C336.31356794 988.19056655 335.44925662 986.47752057 334.57653809 984.76882935 C334.11783325 983.86937592 333.65912842 982.96992249 333.18652344 982.04321289 C332.76489929 981.22482437 332.34327515 980.40643585 331.90887451 979.56324768 C330.98046875 977.51757812 330.98046875 977.51757812 330.98046875 975.51757812 C146.18046875 975.51757812 -38.61953125 975.51757812 -229.01953125 975.51757812 C-229.67953125 977.49757813 -230.33953125 979.47757813 -231.01953125 981.51757812 C-232.16052188 983.94893987 -233.32660227 986.34210029 -234.546875 988.73242188 C-235.06949669 989.7698629 -235.06949669 989.7698629 -235.60267639 990.82826233 C-236.71696976 993.03915745 -237.83653557 995.24732077 -238.95703125 997.45507812 C-244.34205051 1008.08504037 -249.59830434 1018.76483995 -254.72041321 1029.5242157 C-259.58738613 1039.73680525 -264.56923509 1049.89191624 -269.56015015 1060.04437256 C-272.30855114 1065.63561659 -275.05278925 1071.22890277 -277.796875 1076.82226562 C-278.33820572 1077.92559235 -278.87953644 1079.02891907 -279.43727112 1080.16567993 C-283.88288795 1089.23051376 -288.30288349 1098.30753887 -292.70703125 1107.39257812 C-299.14733194 1120.6722203 -305.60474509 1133.94343119 -312.08203125 1147.20507812 C-312.55092773 1148.16510742 -313.01982422 1149.12513672 -313.50292969 1150.11425781 C-320.08534863 1163.58430128 -326.72175992 1177.02553828 -333.48266602 1190.40698242 C-337.63991912 1198.66010324 -341.64313041 1206.98045775 -345.61813354 1215.32281494 C-351.09804074 1226.80758646 -356.717157 1238.22336771 -362.33203125 1249.64257812 C-370.91964637 1267.09750309 -370.91964637 1267.09750309 -379.40234375 1284.60351562 C-379.71807846 1285.26070587 -380.03381317 1285.91789612 -380.3591156 1286.59500122 C-381.72281411 1289.43643289 -383.08160131 1292.28007166 -384.43286133 1295.12744141 C-387.3869712 1301.30665258 -390.5112732 1307.37590515 -393.72265625 1313.42382812 C-399.3344066 1324.00493301 -404.59779842 1334.74592077 -409.83203125 1345.51757812 C-410.79846175 1347.50233817 -411.76501572 1349.4870381 -412.73168945 1351.47167969 C-414.62940834 1355.36948975 -416.52498459 1359.26833132 -418.41894531 1363.16796875 C-420.36074122 1367.1651055 -422.30928988 1371.15885694 -424.26332092 1375.15002441 C-425.74907012 1378.18701644 -427.22767576 1381.22746668 -428.70703125 1384.26757812 C-429.21661377 1385.30527344 -429.72619629 1386.34296875 -430.2512207 1387.41210938 C-432.96813869 1393.024398 -435.1855764 1398.55569145 -437.01953125 1404.51757812 C-437.67953125 1404.51757812 -438.33953125 1404.51757812 -439.01953125 1404.51757812 C-439.51453125 1405.34257813 -440.00953125 1406.16757813 -440.51953125 1407.01757812 C-441.01453125 1407.84257813 -441.50953125 1408.66757813 -442.01953125 1409.51757812 C-442.67953125 1409.51757812 -443.33953125 1409.51757812 -444.01953125 1409.51757812 C-444.38691406 1410.63519531 -444.38691406 1410.63519531 -444.76171875 1411.77539062 C-446.1684398 1414.84221726 -447.57607323 1416.23578933 -450.14453125 1418.39257812 C-450.94503906 1419.07449219 -451.74554687 1419.75640625 -452.5703125 1420.45898438 C-453.37855469 1421.13832031 -454.18679688 1421.81765625 -455.01953125 1422.51757812 C-456.45927755 1423.78586602 -457.8969349 1425.05653108 -459.33203125 1426.33007812 C-461.23936394 1428.01348916 -463.09917106 1429.57311075 -465.1875 1431.02929688 C-467.3042038 1432.47669042 -467.3042038 1432.47669042 -468.01953125 1435.51757812 C-468.67953125 1435.51757812 -469.33953125 1435.51757812 -470.01953125 1435.51757812 C-470.01953125 1436.17757813 -470.01953125 1436.83757812 -470.01953125 1437.51757812 C-475.40797068 1442.03515865 -481.90260129 1445.10478851 -488.19140625 1448.14648438 C-490.44338691 1449.23825953 -492.63260969 1450.38952167 -494.83203125 1451.58007812 C-522.63935212 1465.31208843 -556.90703982 1465.31790341 -586.08203125 1456.51757812 C-602.36668607 1450.79917208 -617.19934075 1442.62844272 -630.54394531 1431.70507812 C-631.80809206 1430.687737 -633.12449657 1429.73593063 -634.44921875 1428.79882812 C-634.96742188 1428.37601563 -635.485625 1427.95320313 -636.01953125 1427.51757812 C-636.01953125 1426.85757812 -636.01953125 1426.19757813 -636.01953125 1425.51757812 C-636.67953125 1425.51757812 -637.33953125 1425.51757812 -638.01953125 1425.51757812 C-639.67578125 1423.90820312 -639.67578125 1423.90820312 -641.51953125 1421.76757812 C-642.4321875 1420.7234375 -642.4321875 1420.7234375 -643.36328125 1419.65820312 C-645.01953125 1417.51757812 -645.01953125 1417.51757812 -646.11328125 1415.31445312 C-646.8873525 1413.33482641 -646.8873525 1413.33482641 -649.01953125 1412.51757812 C-653.27155718 1407.80549693 -656.50198861 1402.24283067 -659.76953125 1396.83007812 C-660.15826416 1396.1886084 -660.54699707 1395.54713867 -660.94750977 1394.88623047 C-664.63160361 1388.69489492 -666.78137163 1382.3598714 -669.01171875 1375.54492188 C-669.59314524 1373.79838881 -670.19249287 1372.05717077 -670.83984375 1370.33398438 C-677.90624999 1351.25468753 -678.35138842 1328.2515941 -674.01953125 1308.51757812 C-673.87515625 1307.75445313 -673.73078125 1306.99132813 -673.58203125 1306.20507812 C-670.98324591 1293.2111514 -665.99443442 1281.82140146 -659.95703125 1270.14257812 C-658.52422892 1267.34534302 -657.09728652 1264.54514811 -655.671875 1261.74414062 C-655.30322327 1261.02133911 -654.93457153 1260.2985376 -654.55474854 1259.55383301 C-651.02662831 1252.60285908 -647.67347256 1245.57186755 -644.32496643 1238.53305054 C-639.45831241 1228.31186527 -634.47318775 1218.15007557 -629.47891235 1207.99078369 C-626.73051136 1202.39953966 -623.98627325 1196.80625348 -621.2421875 1191.21289062 C-620.70085678 1190.1095639 -620.15952606 1189.00623718 -619.60179138 1187.86947632 C-615.15617599 1178.80464543 -610.73572902 1169.72783346 -606.33203125 1160.64257812 C-599.92258575 1147.42046342 -593.4773232 1134.2161464 -587.01953125 1121.01757812 C-580.2760073 1107.23288503 -573.53811853 1093.44553065 -566.83203125 1079.64257812 C-566.3093718 1078.56682022 -566.3093718 1078.56682022 -565.77615356 1077.46932983 C-561.06615767 1067.77104088 -556.38144758 1058.06104053 -551.7668457 1048.31689453 C-549.36638363 1043.26483578 -546.89537398 1038.25104897 -544.38671875 1033.25195312 C-539.25380376 1023.02211941 -534.23295387 1012.73778395 -529.20703125 1002.45507812 C-528.18711659 1000.36961742 -527.16717804 998.28416839 -526.1472168 996.19873047 C-517.92584725 979.38563537 -509.72660143 962.56180124 -501.53427124 945.73454285 C-497.05496155 936.53489468 -492.56862098 927.33867749 -488.08203125 918.14257812 C-487.66748688 917.29286438 -487.2529425 916.44315063 -486.82583618 915.56768799 C-484.72916387 911.27003181 -482.63242591 906.97240766 -480.53564453 902.67480469 C-476.77952279 894.97609353 -473.02404801 887.27706679 -469.26852417 879.57806396 C-467.18555301 875.3078891 -465.10254001 871.03773465 -463.01953125 866.76757812 C-462.18619772 865.05924489 -461.35286438 863.35091156 -460.51953125 861.64257812 C-458.85286458 858.22591146 -457.18619792 854.80924479 -455.51953125 851.39257812 C-454.90080391 850.12418594 -454.90080391 850.12418594 -454.26957703 848.83016968 C-453.43609351 847.12153 -452.60260759 845.41289149 -451.76911926 843.70425415 C-449.68806402 839.43811757 -447.60705034 835.17196072 -445.52612305 830.90576172 C-441.74905327 823.16233195 -437.9717251 815.41902897 -434.19271851 807.67654419 C-433.34090323 805.93121638 -432.48919814 804.18583477 -431.63760376 802.44039917 C-429.53856451 798.1382365 -427.43822982 793.8367177 -425.33496094 789.53662109 C-421.67167227 782.04212233 -418.02089959 774.54280729 -414.43681335 767.01004028 C-412.91318536 763.80818832 -411.38218948 760.60988078 -409.85116577 757.41156006 C-409.14427482 755.9286906 -408.44132142 754.44393595 -407.74282837 752.95709229 C-404.04837324 745.09339626 -400.11971529 737.95412366 -394.82373047 731.01318359 C-392.04919817 727.17539345 -390.14302013 723.07339321 -388.20703125 718.76757812 C-387.29027935 716.78724343 -386.37077229 714.80818294 -385.44921875 712.83007812 C-384.92811523 711.70859375 -384.40701172 710.58710937 -383.87011719 709.43164062 C-381.66925956 704.74382919 -379.3776262 700.10091466 -377.08984375 695.45507812 C-376.44270164 694.13863312 -376.44270164 694.13863312 -375.78248596 692.79559326 C-374.02885433 689.22884759 -372.2748829 685.66231022 -370.5118103 682.10021973 C-369.26554286 679.58047389 -368.02663454 677.05722842 -366.7890625 674.53320312 C-366.40835602 673.76854736 -366.02764954 673.0038916 -365.63540649 672.21606445 C-363.57895944 668.06305923 -363.57895944 668.06305923 -363.01953125 663.51757812 C-362.04662762 662.49119684 -361.04293354 661.49361488 -360.01953125 660.51757812 C-358.91105363 658.69961571 -358.91105363 658.69961571 -357.9609375 656.66503906 C-357.39144882 655.5004718 -357.39144882 655.5004718 -356.81045532 654.31237793 C-356.20238541 653.04496765 -356.20238541 653.04496765 -355.58203125 651.75195312 C-355.14982269 650.86382935 -354.71761414 649.97570557 -354.27230835 649.06066895 C-352.84891627 646.13241426 -351.43426953 643.20002222 -350.01953125 640.26757812 C-349.02485584 638.21748002 -348.02956862 636.16767864 -347.03369141 634.11816406 C-345.00018058 629.93116981 -342.96990597 625.74263131 -340.94238281 621.55273438 C-338.31785292 616.13055312 -335.68351533 610.71322504 -333.04296875 605.29882812 C-332.65403946 604.50133148 -332.26511017 603.70383484 -331.86439514 602.88217163 C-331.09132592 601.29714146 -330.31821944 599.71212946 -329.54507446 598.12713623 C-327.60899725 594.15658855 -325.67579664 590.18464063 -323.7421875 586.21289062 C-320.48258065 579.51851422 -317.21912437 572.8260255 -313.953125 566.13476562 C-313.52973343 565.26722153 -313.10634186 564.39967743 -312.67012024 563.50584412 C-310.5546383 559.17127167 -308.43854918 554.83699726 -306.3215332 550.50317383 C-302.31904642 542.30602227 -298.33147785 534.1022083 -294.37890625 525.88085938 C-293.64482978 524.35658188 -292.91070013 522.83232999 -292.17651367 521.30810547 C-290.82260565 518.49704272 -289.47460612 515.68325789 -288.13012695 512.86767578 C-287.5218767 511.60373065 -286.91340951 510.33988988 -286.3046875 509.07617188 C-285.787854 507.99650146 -285.27102051 506.91683105 -284.73852539 505.80444336 C-283.45489665 503.35003436 -282.14117804 501.09654117 -280.64916992 498.77685547 C-277.59928446 493.97367131 -275.14045925 488.92526095 -272.66015625 483.81054688 C-272.15858505 482.78511276 -271.65701385 481.75967865 -271.14024353 480.70317078 C-269.51244516 477.37251819 -267.89091505 474.03885741 -266.26953125 470.70507812 C-265.13617807 468.38280222 -264.00246743 466.06070073 -262.8684082 463.73876953 C-259.57948443 457.00126978 -256.29851338 450.2599206 -253.01953125 443.51757812 C-252.18345528 441.79930459 -251.34735724 440.08104179 -250.51123047 438.36279297 C-247.39900738 431.96560145 -244.29085121 425.56644875 -241.18690491 419.16523743 C-236.20918329 408.90008099 -231.21026171 398.64532233 -226.20703125 388.39257812 C-225.78876068 387.53541199 -225.37049011 386.67824585 -224.93954468 385.79510498 C-222.81582963 381.44306995 -220.6919035 377.09113797 -218.56787109 372.73925781 C-214.79952304 365.018116 -211.03308052 357.29604469 -207.26651001 349.57403564 C-205.18426331 345.30517766 -203.10189086 341.03638103 -201.01953125 336.76757812 C-200.18619732 335.05924508 -199.35286398 333.35091175 -198.51953125 331.64257812 C-170.18619792 273.55924479 -141.85286458 215.47591146 -113.51953125 157.39257812 C-113.10703629 156.5469632 -112.69454132 155.70134827 -112.26954651 154.83010864 C-111.43616311 153.12167319 -110.60277892 151.41323813 -109.76939392 149.70480347 C-107.68681995 145.43553572 -105.60425988 141.16626119 -103.52172852 136.89697266 C-99.76274979 129.19092163 -96.0036861 121.48491213 -92.24406433 113.7791748 C-90.98450837 111.19753899 -89.72504141 108.61585976 -88.46557617 106.03417969 C-86.80339565 102.6270749 -85.14074813 99.22019856 -83.4777832 95.81347656 C-79.67543518 88.02260929 -75.87739462 80.22972683 -72.09483337 72.42922974 C-70.37772577 68.88834424 -68.65873051 65.34837641 -66.93972778 61.80841064 C-66.13293734 60.14545522 -65.32713239 58.48202123 -64.52243042 56.8180542 C-62.36635231 52.35983573 -60.19207864 47.91168094 -57.9864502 43.47775269 C-57.08479043 41.649874 -56.20789829 39.80983565 -55.33300781 37.96899414 C-51.31528566 29.8944318 -46.31309962 23.78328463 -39.95166016 17.50268555 C-38.38911779 15.94969777 -36.87105561 14.36062846 -35.3515625 12.765625 C-34.33446838 11.74171395 -33.31501139 10.72014348 -32.29296875 9.70117188 C-30.95371338 8.3485022 -30.95371338 8.3485022 -29.58740234 6.96850586 C-21.42373182 0.4543733 -9.98481028 -0.0715623 0 0 Z M49.98046875 405.51757812 C47.75796931 409.93713003 45.53855256 414.3582141 43.3215332 418.78051758 C42.57295349 420.27276569 41.82364755 421.76464981 41.07348633 423.25610352 C35.99784176 433.3490519 31.05485167 443.49840772 26.1960907 453.69752502 C21.66591393 463.19968031 17.04563299 472.65650173 12.40859985 482.10687256 C9.90282066 487.21395652 7.4008616 492.3229121 4.8984375 497.43164062 C4.14423775 498.97103806 4.14423775 498.97103806 3.37480164 500.54153442 C-1.33267883 510.15196498 -6.02287839 519.77076048 -10.70703125 529.39257812 C-11.48054538 530.98128486 -12.25406427 532.56998929 -13.02758789 534.15869141 C-14.18666415 536.53928492 -15.34573469 538.91988121 -16.50474548 541.30050659 C-20.98405268 550.500199 -25.47042456 559.696444 -29.95703125 568.89257812 C-30.57884781 570.16714874 -30.57884781 570.16714874 -31.21322632 571.46746826 C-33.30989863 575.76512444 -35.40663659 580.06274859 -37.50341797 584.36035156 C-41.25953971 592.05906272 -45.01501449 599.75808946 -48.77053833 607.45709229 C-50.85350949 611.72726715 -52.93652249 615.9974216 -55.01953125 620.26757812 C-55.85286478 621.97591136 -56.68619812 623.68424469 -57.51953125 625.39257812 C-59.18619792 628.80924479 -60.85286458 632.22591146 -62.51953125 635.64257812 C-63.13823593 636.91092499 -63.13823593 636.91092499 -63.7694397 638.20489502 C-64.6030734 639.91384105 -65.43671191 641.62278473 -66.27035522 643.33172607 C-68.34913235 647.59316593 -70.42782681 651.85464607 -72.50634766 656.11621094 C-76.745863 664.80820005 -80.98688545 673.49944927 -85.23046875 682.18945312 C-89.39640105 690.72079947 -93.55808034 699.25420898 -97.71582031 707.78955078 C-99.22684349 710.89144666 -100.73925487 713.99265898 -102.25292969 717.09326172 C-103.95314288 720.57655628 -105.64950016 724.06169981 -107.34259033 727.54846191 C-107.9544648 728.80702086 -108.56767866 730.06492963 -109.18231201 731.32214355 C-110.01190223 733.01962785 -110.83619414 734.71969856 -111.66015625 736.41992188 C-112.11938477 737.36343506 -112.57861328 738.30694824 -113.05175781 739.27905273 C-114.15180761 741.41708124 -114.15180761 741.41708124 -114.01953125 743.51757812 C-5.11953125 743.51757812 103.78046875 743.51757812 215.98046875 743.51757812 C214.37869522 738.71225754 212.56042967 734.35319957 210.33203125 729.84179688 C209.96786606 729.09683456 209.60370087 728.35187225 209.22850037 727.58433533 C208.02428275 725.1228717 206.81484598 722.66401025 205.60546875 720.20507812 C204.75018436 718.4590103 203.8952926 716.7127501 203.04077148 714.96630859 C201.25298286 711.31346394 199.46334489 707.66153405 197.67236328 704.01025391 C193.86212983 696.2395566 190.07152478 688.45929896 186.27972412 680.67959595 C184.19276134 676.39850536 182.10413803 672.11822509 180.015625 667.83789062 C179.17593682 666.11686549 178.33625583 664.39583684 177.49658203 662.67480469 C176.87339081 661.39748474 176.87339081 661.39748474 176.23760986 660.09436035 C172.90124059 653.25575094 169.56539492 646.41688608 166.22946167 639.57806396 C164.14649051 635.3078891 162.06347751 631.03773465 159.98046875 626.76757812 C159.14713522 625.05924489 158.31380188 623.35091156 157.48046875 621.64257812 C157.06796875 620.79695313 156.65546875 619.95132813 156.23046875 619.08007812 C112.48046876 529.39257815 112.48046876 529.39257815 111.23048401 526.83010864 C110.39710061 525.12167319 109.56371642 523.41323813 108.73033142 521.70480347 C106.64775745 517.43553572 104.56519738 513.16626119 102.48266602 508.89697266 C98.72370025 501.19094818 94.9646358 493.48497193 91.20504761 485.7792511 C89.52629827 482.33844329 87.84761089 478.89760526 86.16894531 475.45675659 C85.3390464 473.75567842 84.5091312 472.05460819 83.67919922 470.35354614 C78.99624286 460.75494498 74.31597942 451.15504088 69.640625 441.55273438 C68.98706276 440.21057861 68.98706276 440.21057861 68.32029724 438.84130859 C66.23634009 434.56162685 64.15280357 430.28174139 62.07006836 426.00146484 C61.3214681 424.46385926 60.57285239 422.9262612 59.82421875 421.38867188 C59.49281387 420.70716568 59.161409 420.02565948 58.81996155 419.32350159 C56.57096076 414.70582775 54.28347187 410.10856756 51.98046875 405.51757812 C51.32046875 405.51757812 50.66046875 405.51757812 49.98046875 405.51757812 Z " fill="#222729" transform="translate(1357.01953125,490.482421875)"/>
<path d="M0 0 C114.84 0 229.68 0 348 0 C343.53076923 6.70384615 343.53076923 6.70384615 341.328125 9.4609375 C271.28045719 98.37952746 240.22012279 212.89151668 253.125 325.0390625 C258.81901881 371.62998671 271.84675615 416.61215281 292 459 C292.4026709 459.8544873 292.8053418 460.70897461 293.22021484 461.58935547 C308.17332769 493.11197731 327.52441846 522.34291491 350 549 C350.47469727 549.56493164 350.94939453 550.12986328 351.43847656 550.71191406 C359.061184 559.8001462 359.061184 559.8001462 367.31298828 568.31030273 C369.05206207 570.05214494 370.63684309 571.87072732 372.23046875 573.74609375 C375.77050419 577.81497169 379.54293088 581.52776579 383.5 585.1875 C384.19359619 585.83187012 384.88719238 586.47624023 385.60180664 587.14013672 C397.8735603 598.48054572 410.54878424 609.08195387 424 619 C424.68288086 619.5038623 425.36576172 620.00772461 426.06933594 620.52685547 C443.1620115 633.05088789 461.27755008 644.09063022 480 654 C480.81984375 654.43521973 481.6396875 654.87043945 482.484375 655.31884766 C581.74744612 707.56355876 700.03182249 715.91883228 806.83129883 683.60986328 C821.89943198 678.9108286 836.95801711 673.56583536 851.14916992 666.61254883 C853 666 853 666 856 667 C857.41196883 669.37084884 858.64498766 671.68747964 859.84375 674.1640625 C860.21294556 674.90715668 860.58214111 675.65025085 860.96252441 676.41586304 C862.15109922 678.81438654 863.32552445 681.21954657 864.5 683.625 C865.25953378 685.16059326 866.01994256 686.69575405 866.78125 688.23046875 C871.51607984 697.8030513 876.12675656 707.43388223 880.72323608 717.07345581 C885.58823717 727.2610064 890.56004245 737.39536878 895.5406189 747.52679443 C898.28901989 753.11803846 901.033258 758.71132465 903.77734375 764.3046875 C904.58933983 765.95967758 904.58933983 765.95967758 905.41773987 767.64810181 C909.86335545 776.7129331 914.28374167 785.78977374 918.6875 794.875 C925.05662031 808.01311671 931.45880481 821.1348082 937.875 834.25 C945.57011296 849.98004073 953.25668562 865.71415593 960.91699219 881.46118164 C964.65620003 889.14618862 968.40284118 896.82738298 972.16885376 904.4992981 C974.03715335 908.30572193 975.90274343 912.11347112 977.76824951 915.92126465 C978.66598151 917.75162183 979.56509005 919.58130457 980.46563721 921.41027832 C981.71231027 923.94241684 982.95428804 926.47680818 984.1953125 929.01171875 C984.56724731 929.76396225 984.93918213 930.51620575 985.3223877 931.29124451 C986.88989182 934.50321098 988.22029336 937.51379609 989 941 C916.60029946 972.99477903 842.09586351 994.79132344 763.4375 1004.25 C762.19331299 1004.40114258 760.94912598 1004.55228516 759.66723633 1004.70800781 C755.44835429 1005.18880137 751.22824138 1005.61138859 747 1006 C746.06309326 1006.08720306 745.12618652 1006.17440613 744.16088867 1006.26425171 C724.78858852 1008.00585107 705.51185648 1008.34517657 686.07714844 1008.31567383 C682.79347955 1008.31106568 679.51018325 1008.3179015 676.2265625 1008.33618164 C645.6841379 1008.50429234 615.27705791 1006.97020544 585 1002.75 C584.24546539 1002.64773102 583.49093079 1002.54546204 582.71353149 1002.44009399 C553.10127077 998.41050415 523.90454589 992.56738436 495 985 C494.35816772 984.83346924 493.71633545 984.66693848 493.05505371 984.49536133 C447.80915253 972.75127698 404.08712394 956.30062951 362 936 C361.11374939 935.57331024 361.11374939 935.57331024 360.20959473 935.13800049 C343.23004509 926.95309315 326.72111722 918.25016081 310.55859375 908.52685547 C308.28254952 907.16861304 305.99298379 905.84257397 303.6875 904.53515625 C264.09143797 881.9998385 226.91218669 853.63154429 193.2421875 823.02734375 C191.28791576 821.26032801 189.30940263 819.53086471 187.3125 817.8125 C177.01141927 808.80161427 167.18980793 799.28536377 157.5 789.625 C156.6637207 788.79331299 155.82744141 787.96162598 154.96582031 787.10473633 C150.68929686 782.81749155 146.56978519 778.45872587 142.62207031 773.8671875 C140.04024634 770.89521433 137.32588107 768.05083076 134.625 765.1875 C129.95441984 760.19589254 125.50382523 755.09756213 121.23046875 749.7578125 C119.22038016 747.27248405 117.15814035 744.84161319 115.07104492 742.42089844 C109.00672216 735.37100284 103.40284961 728.0298563 97.8918457 720.54272461 C96.3948569 718.5307052 94.88448124 716.53154804 93.36401367 714.53735352 C85.94179543 704.77595028 78.96072147 694.78323359 72.1875 684.5625 C71.66941772 683.78308044 71.15133545 683.00366089 70.61755371 682.20062256 C57.58714266 662.57603379 45.49769082 642.50681184 34.43847656 621.70068359 C33.01013538 619.01902878 31.56427135 616.34735829 30.1171875 613.67578125 C11.32750376 578.67279933 -3.61264163 541.7064656 -16 504 C-16.20647156 503.37563049 -16.41294312 502.75126099 -16.62567139 502.10797119 C-38.52789434 435.872212 -52.00954028 365.06982304 -52.203125 295.18359375 C-52.21014599 293.60849479 -52.21723282 292.03339612 -52.22438049 290.45829773 C-52.24378629 285.451361 -52.24881454 280.44447054 -52.25 275.4375 C-52.25044186 274.58485313 -52.25088371 273.73220627 -52.25133896 272.85372162 C-52.25804229 248.19799104 -52.15662225 223.66577985 -49.25323486 199.14788818 C-48.98695689 196.88937095 -48.73283309 194.62968635 -48.47998047 192.36962891 C-44.48611197 157.09038182 -37.92902137 122.35380934 -29 88 C-28.68981934 86.79150391 -28.37963867 85.58300781 -28.06005859 84.33789062 C-24.24832086 69.59083972 -19.84944872 55.0796139 -15.0625 40.625 C-14.82736694 39.91056732 -14.59223389 39.19613464 -14.34997559 38.46005249 C-10.04195474 25.42627582 -5.01336937 12.81194396 0 0 Z " fill="#222729" transform="translate(1308,1501)"/>
<path d="M0 0 C3.28366889 0.00460815 6.56696519 -0.00222768 9.85058594 -0.02050781 C40.39301054 -0.18861851 70.80009053 1.34546839 101.07714844 5.56567383 C102.20895035 5.7190773 102.20895035 5.7190773 103.36361694 5.87557983 C132.97587767 9.90516967 162.17260254 15.74828947 191.07714844 23.31567383 C191.71898071 23.48220459 192.36081299 23.64873535 193.02209473 23.8203125 C242.62287846 36.69475576 290.35695435 55.22894 336.07714844 78.31567383 C335.46920573 82.1822592 334.30312007 85.20528845 332.52246094 88.68286133 C331.99612061 89.72063721 331.46978027 90.75841309 330.92749023 91.82763672 C330.35812744 92.93743896 329.78876465 94.04724121 329.20214844 95.19067383 C328.00132099 97.56097423 326.80182365 99.93189243 325.60449219 102.30395508 C325.3026149 102.90088669 325.00073761 103.4978183 324.68971252 104.11283875 C321.97122398 109.49882204 319.35205031 114.92830403 316.76464844 120.37817383 C316.12487061 121.71912109 316.12487061 121.71912109 315.47216797 123.0871582 C313.33851768 127.55942482 311.20979441 132.03395831 309.09130859 136.51342773 C307.29065619 140.31894623 305.47905802 144.11911577 303.66177368 147.91671753 C302.94136577 149.42707893 302.22467888 150.93922107 301.5118103 152.45315552 C300.51171295 154.57600672 299.49905869 156.69242167 298.48339844 158.80786133 C298.18383743 159.45149124 297.88427643 160.09512115 297.57563782 160.758255 C296.81918108 162.3168325 295.95583476 163.82258945 295.07714844 165.31567383 C294.08714844 165.64567383 293.09714844 165.97567383 292.07714844 166.31567383 C292.01462891 167.25185547 291.95210937 168.18803711 291.88769531 169.15258789 C291.10524801 174.53907376 288.53294446 179.11130448 286.10839844 183.92504883 C285.34768791 185.46505051 285.34768791 185.46505051 284.5716095 187.03616333 C282.91567823 190.38382299 281.24636632 193.72462235 279.57714844 197.06567383 C278.42266802 199.39472927 277.26927411 201.72432359 276.11694336 204.05444336 C273.82262668 208.69247806 271.52436663 213.32852275 269.22314453 217.96313477 C265.56334468 225.34243265 261.95639459 232.74659957 258.3706665 240.16210938 C256.70676601 243.60274877 255.03857497 247.04130508 253.37011719 250.47973633 C253.03282593 251.17492371 252.69553467 251.87011108 252.34802246 252.58636475 C247.18956232 263.2115895 241.99269562 273.81810999 236.80194092 284.42758179 C231.73644445 294.78116938 226.67394641 305.13616901 221.62792969 315.49926758 C221.19293152 316.3926181 220.75793335 317.28596863 220.30975342 318.20639038 C218.25685657 322.42303759 216.20483828 326.6401103 214.15380859 330.85766602 C210.50174911 338.36408189 206.83946042 345.86364578 203.07714844 353.31567383 C198.34042488 351.9354365 194.09613022 349.91974465 189.69458008 347.73681641 C176.14497451 341.02142654 162.29555519 335.44412254 148.07714844 330.31567383 C147.07570801 329.95344727 146.07426758 329.5912207 145.04248047 329.21801758 C89.68791294 309.43092732 31.48425612 303.55495202 -26.92285156 306.31567383 C-34.09490965 293.09219173 -40.71074429 279.62109308 -47.24302673 266.07481384 C-47.59756424 265.33961014 -47.95210175 264.60440643 -48.31738281 263.84692383 C-48.67993668 263.09492203 -49.04249054 262.34292023 -49.41603088 261.56813049 C-55.12346696 249.74129731 -60.91252874 237.95403791 -66.69262695 226.16259766 C-71.07173072 217.22434896 -75.4327614 208.27900105 -79.71972656 199.29614258 C-88.45589716 180.81868873 -88.45589716 180.81868873 -98.74707031 163.18237305 C-106.22891246 151.43124711 -111.99279831 138.56567646 -118.07733154 126.05419922 C-118.8342011 124.49795346 -119.59345642 122.94286852 -120.35302734 121.38793945 C-123.54316354 114.83796549 -126.64860126 108.35476216 -128.98535156 101.44067383 C-130.2891302 97.60946921 -131.96346098 94.52527657 -134.21582031 91.16723633 C-137.68495056 85.81174694 -140.49231262 80.34761403 -143.17285156 74.56567383 C-144.19208379 72.40346003 -145.21304817 70.24206226 -146.23535156 68.08129883 C-146.51203674 67.49489624 -146.78872192 66.90849365 -147.0737915 66.30432129 C-149.64648736 60.86484631 -152.28042074 55.45593128 -154.92285156 50.05004883 C-155.35523132 49.1652887 -155.78761108 48.28052856 -156.23309326 47.36895752 C-157.98310636 43.78966244 -159.73415113 40.21087691 -161.48742676 36.63317871 C-162.72280009 34.11149968 -163.95581935 31.5886814 -165.18847656 29.06567383 C-165.56601074 28.29705017 -165.94354492 27.52842651 -166.33251953 26.73651123 C-168.92285156 21.42910636 -168.92285156 21.42910636 -168.92285156 20.31567383 C-138.60068305 13.41696546 -108.24322402 7.77934252 -77.36035156 4.06567383 C-75.49407104 3.83895996 -75.49407104 3.83895996 -73.59008789 3.60766602 C-69.37120585 3.12687246 -65.15109294 2.70428524 -60.92285156 2.31567383 C-59.51749146 2.18486923 -59.51749146 2.18486923 -58.08374023 2.05142212 C-38.71144008 0.30982276 -19.43470804 -0.02950274 0 0 Z " fill="#222729" transform="translate(1982.9228515625,1040.684326171875)"/>
<path d="M0 0 C26.68448886 22.96660613 44.34196201 55.07097851 47.25 90.5 C49.17861462 133.15974768 36.79920901 168.02935294 8.2265625 199.74609375 C-14.28226873 223.34712565 -48.04949242 237.86561085 -80.55078125 238.703125 C-121.71342931 239.20545527 -156.01556351 226.16221911 -185.9375 197.625 C-212.35585308 170.20972794 -223.3551315 134.60632118 -222.95703125 97.1875 C-222.13425348 61.44966812 -205.49630815 28.07485149 -179.94140625 3.44921875 C-129.33170572 -41.56725285 -52.118201 -43.83416588 0 0 Z " fill="#222729" transform="translate(2090.75,1712.5)"/>
</svg>
